:FULLY-SPECIFIED
:FORCE-ALL-JOINTS-BE-3DOF
:DEGREES
178
root 8.1759 16.3932 -12.1634 6.84757 7.54291 -2.98121
lfemur -18.79 2.90462 -12.9329
ltibia 26.8881 0 0
lfoot -3.49121 7.69972 0
ltoes -15.0816 0 0
rfemur -15.378 4.61535 28.6867
rtibia 16.3466 0 0
rfoot -19.7773 3.25652 0
rtoes -7.40468 0 0
lowerback -5.61427 -0.479786 1.10955
upperback -0.890141 -0.791983 3.74234
thorax 2.38203 -0.399223 3.18609
lowerneck -17.1196 -6.7221 -14.6434
upperneck 14.8607 -8.34688 14.8661
head 8.73105 -3.4048 6.43074
lclavicle 9.9345e-15 -1.79711e-14 0
lhumerus -46.4833 -4.66693 93.7297
lradius 23.9253 0 0
lwrist 1.33186 0 0
lhand -10.0343 -22.53 0
lfingers 7.12502 0 0
lthumb 15.9476 6.79216 0
rclavicle 9.9345e-15 -1.79711e-14 0
rhumerus -38.9944 8.59665 -79.9394
rradius 43.7198 0 0
rwrist -22.7436 0 0
rhand -32.7275 -27.2265 0
rfingers 7.12502 0 0
rthumb -5.95105 -57.1201 0
179
root 8.17042 16.4004 -12.0447 6.85274 7.35358 -3.08163
lfemur -19.938 2.79135 -13.0133
ltibia 26.7508 0 0
lfoot -4.04654 7.85832 0
ltoes -15.2241 0 0
rfemur -14.5611 4.68168 28.8791
rtibia 15.8945 0 0
rfoot -19.915 3.37233 0
rtoes -7.32447 0 0
lowerback -5.61428 -0.369574 1.1843
upperback -0.87454 -0.6499 3.74307
thorax 2.38868 -0.327907 3.15529
lowerneck -17.05 -6.72377 -14.6387
upperneck 14.8342 -8.36242 14.8908
head 8.71315 -3.41221 6.43646
lclavicle 8.72397e-15 -1.75865e-14 0
lhumerus -46.7107 -4.9415 93.8897
lradius 24.1537 0 0
lwrist 1.82109 0 0
lhand -10.1914 -22.6241 0
lfingers 7.12502 0 0
lthumb 15.7964 6.71109 0
rclavicle 8.72397e-15 -1.75865e-14 0
rhumerus -38.7664 8.72493 -79.9458
rradius 44.1984 0 0
rwrist -22.9802 0 0
rhand -32.7893 -27.3756 0
rfingers 7.12502 0 0
rthumb -6.01076 -57.2677 0
180
root 8.1654 16.4077 -11.9259 6.85863 7.15993 -3.17818
lfemur -21.0719 2.68349 -13.0994
ltibia 26.6216 0 0
lfoot -4.59545 8.01338 0
ltoes -15.3542 0 0
rfemur -13.7538 4.74361 29.061
rtibia 15.4716 0 0
rfoot -20.0347 3.48162 0
rtoes -7.25251 0 0
lowerback -5.61425 -0.260418 1.25583
upperback -0.859909 -0.509 3.74256
thorax 2.39434 -0.257178 3.1249
lowerneck -16.9835 -6.7246 -14.6332
upperneck 14.8102 -8.37658 14.9142
head 8.69636 -3.41893 6.44186
lclavicle 7.52711e-15 -1.72006e-14 0
lhumerus -46.9298 -5.21211 94.044
lradius 24.3766 0 0
lwrist 2.29813 0 0
lhand -10.3448 -22.7166 0
lfingers 7.12502 0 0
lthumb 15.6488 6.63138 0
rclavicle 7.52711e-15 -1.72006e-14 0
rhumerus -38.5466 8.85126 -79.9556
rradius 44.6654 0 0
rwrist -23.2118 0 0
rhand -32.8484 -27.5225 0
rfingers 7.12502 0 0
rthumb -6.0678 -57.4132 0
181
root 8.16084 16.415 -11.8071 6.86521 6.96234 -3.27088
lfemur -22.1907 2.58102 -13.191
ltibia 26.5004 0 0
lfoot -5.13744 8.16481 0
ltoes -15.4722 0 0
rfemur -12.9567 4.8012 29.2328
rtibia 15.0776 0 0
rfoot -20.137 3.58448 0
rtoes -7.1886 0 0
lowerback -5.61419 -0.152425 1.32415
upperback -0.846234 -0.369429 3.74083
thorax 2.39903 -0.187109 3.09495
lowerneck -16.9202 -6.72461 -14.627
upperneck 14.7887 -8.38939 14.9364
head 8.68066 -3.42496 6.44695
lclavicle 6.34501e-15 -1.68141e-14 0
lhumerus -47.1408 -5.47856 94.1926
lradius 24.5939 0 0
lwrist 2.76278 0 0
lhand -10.4943 -22.8073 0
lfingers 7.12502 0 0
lthumb 15.5049 6.55311 0
rclavicle 6.34501e-15 -1.68141e-14 0
rhumerus -38.3349 8.97552 -79.9685
rradius 45.1208 0 0
rwrist -23.4381 0 0
rhand -32.9047 -27.6673 0
rfingers 7.12502 0 0
rthumb -6.12218 -57.5567 0
182
root 8.15678 16.4223 -11.6881 6.87245 6.76121 -3.35972
lfemur -23.2934 2.4839 -13.2876
ltibia 26.3872 0 0
lfoot -5.67203 8.31253 0
ltoes -15.5785 0 0
rfemur -12.1705 4.85453 29.3943
rtibia 14.7119 0 0
rfoot -20.2222 3.68097 0
rtoes -7.13258 0 0
lowerback -5.61409 -0.0457018 1.38929
upperback -0.833504 -0.231328 3.73795
thorax 2.40278 -0.117772 3.06545
lowerneck -16.8599 -6.72384 -14.6201
upperneck 14.7694 -8.40087 14.9575
head 8.66604 -3.43033 6.45174
lclavicle 5.17879e-15 -1.64275e-14 0
lhumerus -47.3434 -5.74061 94.3356
lradius 24.8055 0 0
lwrist 3.21481 0 0
lhand -10.6398 -22.8963 0
lfingers 7.12502 0 0
lthumb 15.3648 6.47632 0
rclavicle 5.17879e-15 -1.64275e-14 0
rhumerus -38.1314 9.09764 -79.9846
rradius 45.5642 0 0
rwrist -23.659 0 0
rhand -32.9583 -27.8098 0
rfingers 7.12502 0 0
rthumb -6.17393 -57.6979 0
183
root 8.15322 16.4295 -11.5688 6.88032 6.55693 -3.44471
lfemur -24.379 2.39207 -13.3891
ltibia 26.2818 0 0
lfoot -6.1987 8.45645 0
ltoes -15.6731 0 0
rfemur -11.3961 4.90365 29.5458
rtibia 14.3743 0 0
rfoot -20.2907 3.77117 0
rtoes -7.08427 0 0
lowerback -5.61396 0.0596457 1.45125
upperback -0.821704 -0.0948415 3.73393
thorax 2.40562 -0.0492399 3.03644
lowerneck -16.8028 -6.7223 -14.6125
upperneck 14.7525 -8.41105 14.9773
head 8.65248 -3.43503 6.45622
lclavicle 4.02953e-15 -1.60413e-14 0
lhumerus -47.5378 -5.99806 94.473
lradius 25.0113 0 0
lwrist 3.65401 0 0
lhand -10.7814 -22.9834 0
lfingers 7.12502 0 0
lthumb 15.2286 6.40107 0
rclavicle 4.02953e-15 -1.60413e-14 0
rhumerus -37.9361 9.21749 -80.0037
rradius 45.9955 0 0
rwrist -23.8744 0 0
rhand -33.0092 -27.9499 0
rfingers 7.12502 0 0
rthumb -6.22306 -57.8367 0
184
root 8.15018 16.4368 -11.4493 6.88879 6.3499 -3.52584
lfemur -25.4466 2.30551 -13.4951
ltibia 26.184 0 0
lfoot -6.71696 8.59649 0
ltoes -15.7565 0 0
rfemur -10.6341 4.94863 29.6874
rtibia 14.0643 0 0
rfoot -20.3431 3.85516 0
rtoes -7.04348 0 0
lowerback -5.6138 0.163511 1.51005
upperback -0.810822 0.0398869 3.72884
thorax 2.40756 0.0184158 3.00794
lowerneck -16.7488 -6.72003 -14.6042
upperneck 14.7378 -8.41997 14.996
head 8.63996 -3.4391 6.46041
lclavicle 2.89835e-15 -1.56561e-14 0
lhumerus -47.7239 -6.25067 94.6046
lradius 25.2112 0 0
lwrist 4.08016 0 0
lhand -10.9189 -23.0685 0
lfingers 7.12502 0 0
lthumb 15.0963 6.32742 0
rclavicle 2.89835e-15 -1.56561e-14 0
rhumerus -37.7491 9.335 -80.0256
rradius 46.4144 0 0
rwrist -24.0842 0 0
rhand -33.0574 -28.0874 0
rfingers 7.12502 0 0
rthumb -6.26957 -57.973 0
